<svg id="Layer_1" enable-background="new 0 0 511.333 511.333" height="512" viewBox="0 0 511.333 511.333" width="512" xmlns="http://www.w3.org/2000/svg"><path d="m486.152 83.585c-2.522-3.574-5.945-6.136-9.715-7.563-91.357-34.596-419.026-26.721-449.33 5.175-1.549 1.63-3.145 3.963-4.177 6.473-16.854 40.891-22.93 121.187-22.93 167.991 0 47.037 6.308 128.581 23.006 168.157 1.02 2.418 2.552 4.671 4.106 6.307 30.387 31.968 358.055 39.738 449.326 5.175 3.833-1.453 7.187-4.019 9.654-7.48 12.99-18.257 25.242-101.695 25.242-172.159-.001-65.667-11.576-152.747-25.182-172.076zm-34.783 284.762c13.865 13.009 4.554 36.314-14.374 36.314-5.151 0-10.312-1.883-14.365-5.686l-121.963-114.433-30.536 29.013c-8.105 7.701-20.824 7.701-28.93 0l-30.536-29.013-121.963 114.434c-4.053 3.802-9.214 5.686-14.365 5.686-18.934 0-28.232-23.312-14.374-36.314l120.101-112.686-120.1-112.686c-8.458-7.936-8.881-21.226-.945-29.684 7.935-8.457 21.226-8.881 29.683-.945 158.713 148.913 126.401 118.477 166.965 157.017 40.608-38.583 8.369-8.214 166.965-157.017 8.458-7.936 21.749-7.512 29.683.945 7.936 8.458 7.512 21.748-.945 29.684l-120.102 112.685z"/></svg>